# xmcd
#
# Track frame offsets:
#	150
#	10780
#	26417
#	40796
#	55223
#	89253
#	105374
#	120177
#	149143
#	160482
#	175744
#
# Disc length: 2592 seconds
#
# Revision: 1
# Processed by: cddbd v1.5.2PL0 Copyright (c) Steve Scherf et al.
# Submitted via: audiograbber 1.81.02
#
DISCID=820a1e0b
DTITLE=Don Covay and the Jefferson Lemon Blues Band - The House of Blue Lights
DYEAR=2002
DGENRE=Blues
TTITLE0=Key to the Highway
TTITLE1=Mad Dog Blues
TTITLE2=The Blues Don't Knock
TTITLE3=Blues Ain't Nothing but a Good Woman on your Mind
TTITLE4=House of Blue Lights (part1)
TTITLE5=Four Women
TTITLE6=Steady Roller
TTITLE7=Homade Love
TTITLE8=But I Forgive You Blues
TTITLE9=Shut Your Mouth
TTITLE10=House of Blue Lights (part2)
EXTD=
EXTT0=
EXTT1=
EXTT2=
EXTT3=
EXTT4=
EXTT5=
EXTT6=
EXTT7=
EXTT8=
EXTT9=
EXTT10=
PLAYORDER=
